<svg width="223" height="225" viewBox="0 0 223 225" fill="none" xmlns="http://www.w3.org/2000/svg">
<g filter="url(#filter0_d_2_3)">
<path d="M213.333 3C213.333 4.47276 214.527 5.66667 216 5.66667C217.473 5.66667 218.667 4.47276 218.667 3C218.667 1.52724 217.473 0.333333 216 0.333333C214.527 0.333333 213.333 1.52724 213.333 3ZM142.85 22.6933L142.72 22.2105L142.557 22.2545L142.454 22.3887L142.85 22.6933ZM111.5 63.4867L111.104 63.182L111 63.3167V63.4867H111.5ZM111.5 104.28H111V104.455L111.109 104.591L111.5 104.28ZM142.85 143.667L143.319 143.841L143.417 143.576L143.241 143.355L142.85 143.667ZM130.31 177.427L130.459 177.904L130.693 177.831L130.779 177.601L130.31 177.427ZM71.79 195.713L71.9259 196.195L71.9391 196.191L71.79 195.713ZM4.33333 214C4.33333 215.473 5.52724 216.667 7 216.667C8.47276 216.667 9.66667 215.473 9.66667 214C9.66667 212.527 8.47276 211.333 7 211.333C5.52724 211.333 4.33333 212.527 4.33333 214ZM215.87 2.51719L142.72 22.2105L142.98 23.1761L216.13 3.48281L215.87 2.51719ZM142.454 22.3887L111.104 63.182L111.896 63.7913L143.246 22.998L142.454 22.3887ZM111 63.4867V104.28H112V63.4867H111ZM111.109 104.591L142.459 143.978L143.241 143.355L111.891 103.969L111.109 104.591ZM142.381 143.493L129.841 177.253L130.779 177.601L143.319 143.841L142.381 143.493ZM130.161 176.949L71.6409 195.236L71.9391 196.191L130.459 177.904L130.161 176.949ZM71.6542 195.232L6.86418 213.519L7.13582 214.481L71.9258 196.195L71.6542 195.232Z" fill="#485775"/>
</g>
<defs>
<filter id="filter0_d_2_3" x="0.333333" y="0.333328" width="222.333" height="224.333" filterUnits="userSpaceOnUse" color-interpolation-filters="sRGB">
<feFlood flood-opacity="0" result="BackgroundImageFix"/>
<feColorMatrix in="SourceAlpha" type="matrix" values="0 0 0 0 0 0 0 0 0 0 0 0 0 0 0 0 0 0 127 0" result="hardAlpha"/>
<feOffset dy="4"/>
<feGaussianBlur stdDeviation="2"/>
<feComposite in2="hardAlpha" operator="out"/>
<feColorMatrix type="matrix" values="0 0 0 0 0 0 0 0 0 0 0 0 0 0 0 0 0 0 0.25 0"/>
<feBlend mode="normal" in2="BackgroundImageFix" result="effect1_dropShadow_2_3"/>
<feBlend mode="normal" in="SourceGraphic" in2="effect1_dropShadow_2_3" result="shape"/>
</filter>
</defs>
</svg>
