<svg width="169" height="168" viewBox="0 0 169 168" fill="none" xmlns="http://www.w3.org/2000/svg">
<g filter="url(#filter0_d_2_12)">
<path d="M119.479 35.427L106.009 76.886L141.276 102.509L97.6832 102.509L84.2123 143.968L70.7415 102.509L27.1489 102.509L62.4161 76.886L48.9452 35.427L84.2123 61.0501L119.479 35.427Z" fill="black" fill-opacity="0.25" shape-rendering="crispEdges"/>
</g>
<g filter="url(#filter1_d_2_12)">
<path d="M84 29L96.3483 67.0041H136.308L103.98 90.4919L116.328 128.496L84 105.008L51.6718 128.496L64.0201 90.4919L31.6919 67.0041H71.6517L84 29Z" fill="black" fill-opacity="0.25" shape-rendering="crispEdges"/>
</g>
<path d="M60.545 82.4255C59.819 82.5998 59.1475 82.613 58.5306 82.4649C57.9111 82.3065 57.3836 82.0053 56.9479 81.5614C56.5201 81.1046 56.2241 80.534 56.0597 79.8494L55.0326 75.571C54.8707 74.8968 54.8779 74.2643 55.0542 73.6735C55.2408 73.0802 55.5754 72.5776 56.0579 72.1656C56.5379 71.7432 57.1409 71.4448 57.8669 71.2705C58.593 71.0962 59.2645 71.0831 59.8814 71.2312C60.4984 71.3792 61.0182 71.6713 61.441 72.1073C61.8742 72.5408 62.1705 73.0895 62.3298 73.7533C62.3423 73.8051 62.3367 73.8503 62.313 73.8889C62.2894 73.9275 62.2568 73.9518 62.2153 73.9618L61.4331 74.1989C61.3294 74.2238 61.2663 74.1896 61.2439 74.0963L61.2327 74.0496C61.0559 73.3132 60.6818 72.7832 60.1105 72.4596C59.5367 72.1257 58.866 72.0508 58.0985 72.2351C57.331 72.4194 56.7674 72.7905 56.4077 73.3486C56.0481 73.9066 55.9554 74.5487 56.1297 75.2747L57.1755 79.6309C57.3498 80.357 57.7239 80.8869 58.2977 81.2209C58.8715 81.5548 59.5422 81.6297 60.3097 81.4454C61.0772 81.2611 61.6421 80.8952 62.0042 80.3475C62.3639 79.7894 62.4553 79.1422 62.2785 78.4058L62.2711 78.3747C62.2486 78.2813 62.2893 78.2222 62.393 78.1973L63.1977 78.0535C63.3014 78.0286 63.3645 78.0628 63.3869 78.1562C63.5487 78.8303 63.5363 79.4641 63.3497 80.0574C63.1709 80.6378 62.8403 81.134 62.3578 81.5461C61.8753 81.9581 61.2711 82.2512 60.545 82.4255ZM67.1264 72.2397C68.0599 72.0156 68.838 72.0811 69.4608 72.4362C70.0835 72.7913 70.4896 73.363 70.6788 74.1512L71.9338 79.3787C71.9587 79.4824 71.9193 79.5467 71.8156 79.5716L71.0221 79.7621C70.9184 79.787 70.8541 79.7476 70.8292 79.6439L70.676 79.006C70.6711 78.9853 70.657 78.9722 70.6337 78.9668C70.6209 78.9589 70.6066 78.9679 70.5908 78.9936C70.4062 79.367 70.1264 79.6865 69.7513 79.952C69.3738 80.2072 68.9309 80.3958 68.4227 80.5178C67.6863 80.6946 67.0244 80.6561 66.4369 80.4022C65.8494 80.1483 65.4635 79.6377 65.2792 78.8701C65.0925 78.0922 65.2256 77.4131 65.6786 76.8326C66.1395 76.2393 66.873 75.8218 67.8791 75.5803L69.6838 75.147C69.7253 75.1371 69.741 75.1114 69.7311 75.0699L69.5891 74.4787C69.4621 73.9497 69.2121 73.5709 68.8391 73.3423C68.474 73.1009 67.9803 73.0549 67.358 73.2043C66.8601 73.3238 66.4793 73.5195 66.2154 73.7912C65.9491 74.0526 65.8207 74.3632 65.8303 74.7229C65.8241 74.8341 65.773 74.8957 65.6772 74.9077L64.8109 75.0005C64.6919 75.0072 64.6352 74.9769 64.641 74.9097C64.5846 74.3089 64.7824 73.7623 65.2346 73.2698C65.6868 72.7773 66.3174 72.4339 67.1264 72.2397ZM68.4127 79.5165C69.0246 79.3696 69.5175 79.0922 69.8913 78.6843C70.2626 78.2661 70.386 77.7977 70.2614 77.2791L69.9701 76.0656C69.9601 76.0241 69.9344 76.0083 69.8929 76.0183L68.2594 76.4105C67.5748 76.5748 67.0587 76.8468 66.7111 77.2265C66.3634 77.6061 66.2494 78.0449 66.3689 78.5427C66.4784 78.9991 66.7174 79.3092 67.0859 79.473C67.4622 79.624 67.9045 79.6385 68.4127 79.5165ZM74.4253 78.9451C74.3216 78.97 74.2573 78.9306 74.2324 78.8269L71.6925 68.2475C71.6676 68.1438 71.707 68.0794 71.8107 68.0545L72.6042 67.8641C72.7079 67.8392 72.7722 67.8786 72.7971 67.9823L75.337 78.5617C75.3619 78.6654 75.3225 78.7297 75.2187 78.7546L74.4253 78.9451ZM80.8568 77.5327C80.11 77.712 79.4209 77.6745 78.7894 77.4202C78.1658 77.153 77.6758 76.7112 77.3194 76.0947C77.075 75.6707 76.8532 75.0439 76.6539 74.2141C76.4747 73.4673 76.3902 72.8184 76.4005 72.2675C76.4328 71.5796 76.6726 70.979 77.1198 70.4658C77.5645 69.9422 78.1603 69.5907 78.907 69.4114C79.6642 69.2297 80.3637 69.2647 81.0055 69.5164C81.6578 69.7657 82.1353 70.1557 82.4382 70.6863C82.5349 70.8606 82.6034 71.0087 82.6436 71.1306L82.6511 71.1618C82.6685 71.2344 82.6331 71.2922 82.5447 71.3354L81.7929 71.6311L81.7618 71.6385C81.6892 71.656 81.6313 71.6205 81.5882 71.5321L81.4855 71.31C81.2975 70.9382 80.9896 70.6611 80.5619 70.4786C80.1316 70.2857 79.6572 70.2515 79.1386 70.376C78.62 70.5005 78.218 70.7451 77.9326 71.1098C77.6551 71.4617 77.5192 71.8782 77.5251 72.3595C77.5263 72.776 77.6054 73.311 77.7623 73.9645C77.9266 74.649 78.1003 75.1668 78.2833 75.5178C78.4991 75.9596 78.8117 76.2794 79.2212 76.4773C79.6386 76.6623 80.1066 76.6926 80.6252 76.5681C81.1334 76.4461 81.5379 76.2118 81.8387 75.8654C82.1473 75.5061 82.2985 75.1078 82.2923 74.6705L82.2773 74.6082L82.2779 74.5423C82.2634 74.4361 82.3157 74.3796 82.4348 74.373L83.227 74.3144C83.3357 74.3103 83.396 74.3561 83.4081 74.452L83.4206 74.7781C83.4094 75.417 83.1686 75.9904 82.6982 76.4982C82.2277 77.0061 81.6139 77.3509 80.8568 77.5327ZM88.8463 67.3214C88.8214 67.2177 88.8608 67.1534 88.9645 67.1285L89.7579 66.938C89.8617 66.9131 89.926 66.9525 89.9509 67.0562L91.7661 74.6174C91.791 74.7211 91.7516 74.7854 91.6479 74.8103L90.8545 75.0008C90.7507 75.0257 90.6864 74.9863 90.6615 74.8826L90.5009 74.2136C90.4959 74.1928 90.4818 74.1798 90.4586 74.1744C90.4354 74.169 90.421 74.1779 90.4157 74.2011C90.1344 74.9488 89.5219 75.4359 88.578 75.6625C88.0802 75.782 87.595 75.7943 87.1224 75.6993C86.6577 75.5915 86.2549 75.3756 85.9138 75.0516C85.5831 74.7251 85.353 74.2922 85.2235 73.7528L83.9611 68.4942C83.9362 68.3905 83.9756 68.3262 84.0793 68.3013L84.8727 68.1108C84.9765 68.0859 85.0408 68.1253 85.0657 68.2291L86.2497 73.1609C86.3916 73.7521 86.6709 74.1842 87.0875 74.4572C87.5015 74.7198 87.9938 74.7826 88.5643 74.6456C89.1555 74.5037 89.5799 74.2153 89.8375 73.7805C90.1055 73.3432 90.1697 72.8341 90.0303 72.2533L88.8463 67.3214ZM94.4348 74.1412C94.3311 74.1661 94.2668 74.1267 94.2419 74.023L91.702 63.4436C91.6771 63.3399 91.7165 63.2756 91.8203 63.2507L92.6137 63.0602C92.7174 63.0353 92.7817 63.0747 92.8066 63.1784L95.3465 73.7578C95.3714 73.8615 95.332 73.9258 95.2283 73.9507L94.4348 74.1412ZM98.6677 64.6673C99.6011 64.4432 100.379 64.5087 101.002 64.8638C101.625 65.2189 102.031 65.7906 102.22 66.5789L103.475 71.8063C103.5 71.91 103.461 71.9743 103.357 71.9992L102.563 72.1897C102.46 72.2146 102.395 72.1752 102.37 72.0715L102.217 71.4336C102.212 71.4129 102.198 71.3998 102.175 71.3944C102.162 71.3865 102.148 71.3955 102.132 71.4212C101.947 71.7946 101.668 72.1141 101.293 72.3796C100.915 72.6348 100.472 72.8234 99.964 72.9454C99.2276 73.1222 98.5656 73.0837 97.9781 72.8298C97.3906 72.576 97.0047 72.0653 96.8205 71.2977C96.6337 70.5198 96.7668 69.8407 97.2198 69.2602C97.6807 68.6669 98.4142 68.2495 99.4203 68.0079L101.225 67.5747C101.267 67.5647 101.282 67.539 101.272 67.4975L101.13 66.9063C101.003 66.3773 100.753 65.9985 100.38 65.77C100.015 65.5285 99.5216 65.4825 98.8992 65.6319C98.4014 65.7514 98.0205 65.9471 97.7567 66.2189C97.4903 66.4803 97.362 66.7908 97.3715 67.1505C97.3653 67.2617 97.3143 67.3233 97.2185 67.3354L96.3522 67.4281C96.2331 67.4348 96.1765 67.4045 96.1823 67.3373C96.1258 66.7365 96.3237 66.1899 96.7759 65.6974C97.228 65.2049 97.8586 64.8616 98.6677 64.6673ZM99.9539 71.9441C100.566 71.7972 101.059 71.5198 101.433 71.1119C101.804 70.6937 101.927 70.2253 101.803 69.7067L101.511 68.4932C101.501 68.4517 101.476 68.4359 101.434 68.4459L99.8006 68.8381C99.1161 69.0024 98.6 69.2744 98.2523 69.6541C97.9047 70.0337 97.7906 70.4725 97.9101 70.9703C98.0197 71.4267 98.2587 71.7368 98.6271 71.9006C99.0034 72.0516 99.4457 72.0661 99.9539 71.9441ZM107.575 63.4668C107.6 63.5705 107.56 63.6348 107.457 63.6597L105.699 64.0818C105.657 64.0918 105.641 64.1175 105.651 64.159L106.753 68.7486C106.873 69.2464 107.066 69.5729 107.334 69.7281C107.609 69.8703 107.986 69.8842 108.463 69.7697L108.852 69.6763C108.955 69.6514 109.02 69.6908 109.045 69.7945L109.198 70.4324C109.223 70.5361 109.183 70.6004 109.08 70.6253C108.958 70.6656 108.767 70.7168 108.508 70.7791C107.761 70.9584 107.162 70.9541 106.711 70.7662C106.26 70.5782 105.944 70.1057 105.762 69.3486L104.578 64.4167C104.568 64.3752 104.542 64.3594 104.501 64.3694L103.552 64.5973C103.448 64.6222 103.384 64.5827 103.359 64.479L103.213 63.8723C103.188 63.7685 103.228 63.7042 103.331 63.6793L104.28 63.4515C104.322 63.4415 104.338 63.4158 104.328 63.3743L103.894 61.5696C103.869 61.4659 103.909 61.4016 104.013 61.3767L104.775 61.1936C104.879 61.1687 104.943 61.2082 104.968 61.3119L105.401 63.1166C105.411 63.1581 105.437 63.1738 105.478 63.1639L107.236 62.7418C107.34 62.7169 107.404 62.7563 107.429 62.86L107.575 63.4668ZM115.963 63.411C116.075 63.6915 116.182 64.0495 116.287 64.4851L116.407 64.983C116.432 65.0867 116.392 65.151 116.288 65.1759L111.263 66.3824C111.222 66.3923 111.206 66.418 111.216 66.4595C111.374 67.025 111.493 67.3857 111.574 67.5417C111.801 67.9811 112.133 68.2908 112.571 68.4708C113.009 68.6508 113.518 68.6711 114.099 68.5317C114.535 68.4271 114.895 68.2364 115.18 67.9597C115.464 67.6829 115.656 67.3406 115.756 66.9328C115.796 66.8245 115.863 66.7863 115.959 66.8183L116.651 67.0304C116.747 67.0624 116.785 67.13 116.766 67.2333C116.626 67.7934 116.332 68.2809 115.883 68.6958C115.432 69.1004 114.869 69.3836 114.195 69.5454C113.456 69.7118 112.796 69.6837 112.216 69.4609C111.636 69.2382 111.164 68.847 110.799 68.2873C110.493 67.8343 110.228 67.141 110.004 66.2076C109.899 65.7719 109.819 65.4181 109.765 65.1459C109.719 64.8609 109.7 64.602 109.71 64.3692C109.725 63.6527 109.948 63.0287 110.38 62.4972C110.822 61.9632 111.422 61.6053 112.179 61.4236C113.123 61.197 113.906 61.2612 114.529 61.6163C115.152 61.9714 115.63 62.5696 115.963 63.411ZM112.41 62.3882C111.902 62.5102 111.509 62.7471 111.232 63.099C110.962 63.4379 110.829 63.8429 110.832 64.3138C110.822 64.5465 110.866 64.9091 110.962 65.4016C110.972 65.4431 110.998 65.4588 111.039 65.4489L115.069 64.4815C115.11 64.4715 115.126 64.4458 115.116 64.4043C114.983 63.9425 114.872 63.6181 114.783 63.431C114.557 62.9917 114.236 62.6795 113.818 62.4945C113.409 62.2966 112.939 62.2612 112.41 62.3882ZM61.8044 104.806C61.7318 104.823 61.6831 104.78 61.6582 104.676L61.5088 104.054C61.4839 103.95 61.5233 103.886 61.627 103.861L61.6892 103.846C62.0912 103.739 62.3874 103.602 62.5779 103.435C62.7811 103.277 62.9245 103.029 63.0078 102.691C63.1041 102.36 63.1733 101.872 63.2156 101.226C63.2264 101.179 63.2189 101.148 63.1932 101.132L58.7262 94.1089L58.6957 94.0505C58.6783 93.9778 58.7162 93.9303 58.8096 93.9079L59.6342 93.71C59.7275 93.6876 59.7997 93.7141 59.8507 93.7896L63.3823 99.5894C63.3976 99.6077 63.4157 99.6143 63.4364 99.6094C63.4571 99.6044 63.4702 99.5903 63.4756 99.567L63.958 92.8035C63.9692 92.7131 64.0215 92.6567 64.1148 92.6343L64.9238 92.44C65.0379 92.4126 65.0931 92.4597 65.0894 92.5813L64.2244 101.658C64.1423 102.413 64.0322 102.982 63.8941 103.366C63.756 103.751 63.5359 104.045 63.2339 104.249C62.9447 104.461 62.5045 104.638 61.9133 104.78L61.8044 104.806ZM71.3607 99.3524C70.6139 99.5316 69.9248 99.4941 69.2933 99.2399C68.6619 98.9856 68.1615 98.5463 67.7922 97.9219C67.5324 97.4796 67.3067 96.8592 67.115 96.0606C66.9232 95.2619 66.8439 94.6118 66.8771 94.1102C66.9148 93.3991 67.1572 92.7869 67.6044 92.2737C68.0517 91.7604 68.659 91.4117 69.4265 91.2274C70.163 91.0506 70.8417 91.0906 71.4628 91.3473C72.0943 91.6016 72.587 92.0318 72.9409 92.6379C73.1932 93.0491 73.419 93.6695 73.6182 94.4993C73.8199 95.3394 73.9004 95.9947 73.8598 96.4652C73.8246 97.1867 73.5834 97.804 73.1361 98.3173C72.6993 98.828 72.1075 99.1731 71.3607 99.3524ZM71.1291 98.3878C71.627 98.2682 72.0199 98.0313 72.3078 97.677C72.5932 97.3123 72.7421 96.8816 72.7545 96.385C72.7582 95.9892 72.6791 95.4542 72.5173 94.78C72.3529 94.0955 72.1857 93.5817 72.0156 93.2386C71.7791 92.8017 71.4469 92.492 71.0192 92.3095C70.5993 92.1141 70.1352 92.0774 69.627 92.1994C69.1188 92.3215 68.722 92.5648 68.4365 92.9295C68.1486 93.2839 67.9985 93.7093 67.9861 94.206C67.9903 94.5889 68.0745 95.1226 68.2389 95.8072C68.4032 96.4917 68.5704 97.0056 68.7406 97.3487C68.9667 97.788 69.2897 98.1054 69.7096 98.3007C70.1374 98.4833 70.6105 98.5123 71.1291 98.3878ZM79.7141 89.0537C79.6892 88.95 79.7286 88.8857 79.8323 88.8608L80.6258 88.6703C80.7295 88.6454 80.7938 88.6848 80.8187 88.7885L82.634 96.3497C82.6589 96.4534 82.6195 96.5177 82.5158 96.5426L81.7223 96.7331C81.6186 96.758 81.5543 96.7186 81.5294 96.6149L81.3688 95.9459C81.3638 95.9252 81.3497 95.9121 81.3265 95.9067C81.3032 95.9013 81.2889 95.9102 81.2835 95.9335C81.0023 96.6811 80.3897 97.1682 79.4459 97.3948C78.948 97.5143 78.4628 97.5266 77.9903 97.4316C77.5256 97.3238 77.1227 97.1079 76.7817 96.7839C76.451 96.4574 76.2209 96.0245 76.0914 95.4851L74.8289 90.2266C74.804 90.1229 74.8434 90.0585 74.9472 90.0336L75.7406 89.8431C75.8443 89.8182 75.9086 89.8577 75.9335 89.9614L77.1176 94.8932C77.2595 95.4844 77.5388 95.9165 77.9553 96.1895C78.3694 96.4521 78.8617 96.5149 79.4321 96.3779C80.0233 96.236 80.4477 95.9476 80.7053 95.5128C80.9733 95.0755 81.0376 94.5664 80.8982 93.9856L79.7141 89.0537ZM86.4123 87.1988C86.7546 87.1167 87.0664 87.1131 87.3477 87.1882C87.4406 87.2098 87.4879 87.2697 87.4896 87.368L87.5014 88.1714C87.4952 88.2826 87.4353 88.3299 87.3216 88.3134C87.1278 88.2831 86.9169 88.2953 86.6887 88.3501L86.4902 88.4142C85.9558 88.5645 85.5584 88.8738 85.2979 89.3422C85.0349 89.8003 84.9731 90.3197 85.1125 90.9005L86.2144 95.4901C86.2393 95.5938 86.1999 95.6582 86.0962 95.6831L85.3027 95.8735C85.199 95.8984 85.1347 95.859 85.1098 95.7553L83.2945 88.1942C83.2696 88.0904 83.309 88.0261 83.4127 88.0012L84.2062 87.8107C84.3099 87.7858 84.3742 87.8253 84.3991 87.929L84.627 88.878C84.6344 88.9091 84.6446 88.9286 84.6575 88.9365C84.6782 88.9315 84.6913 88.9174 84.6967 88.8942C84.8223 88.4581 85.0262 88.0965 85.3083 87.8094C85.5983 87.5094 85.9663 87.3059 86.4123 87.1988ZM93.3699 94.019C92.7891 94.1585 92.2481 94.1896 91.7469 94.1125C91.2561 94.0329 90.8489 93.8674 90.5252 93.616C90.212 93.3621 90.0093 93.0433 89.9172 92.6595L89.8723 92.4728C89.8474 92.3691 89.8868 92.3048 89.9906 92.2799L90.7373 92.1006C90.8411 92.0757 90.9054 92.1151 90.9303 92.2188L90.9602 92.3433C91.0423 92.6856 91.2909 92.944 91.7058 93.1187C92.1285 93.2804 92.6096 93.2966 93.1489 93.1671C93.6883 93.0376 94.0953 92.8138 94.3699 92.4955C94.642 92.1669 94.7333 91.8159 94.6436 91.4425C94.5814 91.1832 94.4422 90.9918 94.226 90.8681C94.0202 90.742 93.7868 90.6609 93.5259 90.6249C93.2753 90.5863 92.8888 90.5529 92.3665 90.5248C91.7458 90.4982 91.2289 90.4468 90.8156 90.3705C90.4024 90.2942 90.0313 90.142 89.7022 89.9138C89.3811 89.6728 89.1658 89.3241 89.0562 88.8677C88.8968 88.2039 89.0291 87.6127 89.4531 87.0941C89.8771 86.5754 90.5143 86.214 91.3648 86.0098C91.9353 85.8729 92.4607 85.8455 92.9412 85.9276C93.432 86.0072 93.8365 86.1843 94.1547 86.4589C94.4705 86.7232 94.6769 87.0576 94.774 87.4621L94.7852 87.5088C94.8101 87.6125 94.7707 87.6768 94.667 87.7017L93.9358 87.8773C93.8321 87.9022 93.7678 87.8627 93.7429 87.759L93.7317 87.7123C93.647 87.3597 93.4049 87.1052 93.0053 86.9488C92.6162 86.7899 92.1364 86.779 91.5659 86.9159C91.0369 87.0429 90.6378 87.2539 90.3686 87.5489C90.0969 87.8336 90.0058 88.1626 90.0955 88.536C90.1801 88.8886 90.4004 89.1209 90.7564 89.2329C91.1124 89.3449 91.6395 89.4158 92.3378 89.4456C92.9817 89.4775 93.509 89.5265 93.9197 89.5924C94.3305 89.6583 94.7068 89.8093 95.0487 90.0454C95.3881 90.271 95.615 90.6224 95.7296 91.0995C95.8914 91.7737 95.7564 92.3765 95.3246 92.908C94.8927 93.4395 94.2412 93.8099 93.3699 94.019ZM103.033 86.0552C103.144 86.3357 103.252 86.6937 103.357 87.1293L103.476 87.6272C103.501 87.7309 103.462 87.7952 103.358 87.8201L98.3327 89.0266C98.2912 89.0365 98.2755 89.0623 98.2854 89.1037C98.4431 89.6692 98.5626 90.03 98.644 90.1859C98.8701 90.6253 99.2022 90.935 99.6404 91.115C100.079 91.295 100.588 91.3153 101.169 91.1759C101.604 91.0713 101.965 90.8806 102.249 90.6039C102.534 90.3271 102.726 89.9848 102.825 89.577C102.865 89.4687 102.933 89.4305 103.028 89.4625L103.721 89.6746C103.816 89.7066 103.854 89.7742 103.835 89.8775C103.696 90.4376 103.401 90.9251 102.952 91.34C102.501 91.7446 101.938 92.0278 101.264 92.1896C100.525 92.3561 99.8657 92.3279 99.2857 92.1052C98.7057 91.8824 98.2333 91.4912 97.8686 90.9315C97.5624 90.4785 97.2972 89.7853 97.0731 88.8518C96.9685 88.4162 96.889 88.0623 96.8347 87.7901C96.7882 87.5051 96.7699 87.2462 96.7798 87.0135C96.7943 86.2969 97.0175 85.6729 97.4493 85.1414C97.8916 84.6075 98.4913 84.2496 99.2484 84.0678C100.192 83.8412 100.976 83.9054 101.598 84.2605C102.221 84.6156 102.699 85.2139 103.033 86.0552ZM99.48 85.0324C98.9718 85.1544 98.5789 85.3913 98.3013 85.7432C98.0317 86.0821 97.8985 86.4871 97.9019 86.958C97.892 87.1907 97.9351 87.5533 98.0314 88.0458C98.0414 88.0873 98.0671 88.1031 98.1086 88.0931L102.138 87.1257C102.18 87.1157 102.195 87.09 102.185 87.0485C102.053 86.5868 101.942 86.2623 101.853 86.0752C101.627 85.6359 101.305 85.3237 100.888 85.1387C100.478 84.9408 100.009 84.9054 99.48 85.0324ZM106.71 90.7341C106.606 90.759 106.542 90.7196 106.517 90.6159L103.977 80.0365C103.952 79.9328 103.992 79.8685 104.095 79.8436L104.889 79.6531C104.993 79.6282 105.057 79.6676 105.082 79.7713L107.622 90.3507C107.647 90.4544 107.607 90.5187 107.503 90.5436L106.71 90.7341ZM110.869 79.2376C110.298 79.3746 109.94 79.5976 109.795 79.9067C109.648 80.2055 109.647 80.6608 109.794 81.2727L109.869 81.5839C109.879 81.6254 109.904 81.6411 109.946 81.6312L111.688 81.2128C111.792 81.1879 111.856 81.2274 111.881 81.3311L112.049 82.0312C112.074 82.1349 112.035 82.1992 111.931 82.2241L110.189 82.6424C110.147 82.6524 110.131 82.6781 110.141 82.7196L111.736 89.3629C111.761 89.4666 111.722 89.5309 111.618 89.5558L110.84 89.7425C110.736 89.7674 110.672 89.728 110.647 89.6243L109.052 82.9811C109.042 82.9396 109.017 82.9238 108.975 82.9338L107.933 83.184C107.829 83.2089 107.765 83.1695 107.74 83.0658L107.572 82.3657C107.547 82.262 107.586 82.1977 107.69 82.1728L108.732 81.9225C108.774 81.9126 108.79 81.8868 108.78 81.8454L108.69 81.472C108.536 80.8289 108.487 80.3084 108.546 79.9106C108.601 79.5023 108.785 79.1729 109.098 78.9223C109.419 78.6588 109.901 78.4498 110.544 78.2955L110.995 78.1871C111.099 78.1622 111.163 78.2017 111.188 78.3054L111.345 78.9588C111.37 79.0625 111.33 79.1268 111.226 79.1517L110.869 79.2376Z" fill="#E1E1E1"/>
<defs>
<filter id="filter0_d_2_12" x="26.1489" y="35.427" width="116.127" height="113.541" filterUnits="userSpaceOnUse" color-interpolation-filters="sRGB">
<feFlood flood-opacity="0" result="BackgroundImageFix"/>
<feColorMatrix in="SourceAlpha" type="matrix" values="0 0 0 0 0 0 0 0 0 0 0 0 0 0 0 0 0 0 127 0" result="hardAlpha"/>
<feOffset dy="4"/>
<feGaussianBlur stdDeviation="0.5"/>
<feComposite in2="hardAlpha" operator="out"/>
<feColorMatrix type="matrix" values="0 0 0 0 0 0 0 0 0 0 0 0 0 0 0 0 0 0 0.25 0"/>
<feBlend mode="normal" in2="BackgroundImageFix" result="effect1_dropShadow_2_12"/>
<feBlend mode="normal" in="SourceGraphic" in2="effect1_dropShadow_2_12" result="shape"/>
</filter>
<filter id="filter1_d_2_12" x="30.6919" y="29" width="106.616" height="104.496" filterUnits="userSpaceOnUse" color-interpolation-filters="sRGB">
<feFlood flood-opacity="0" result="BackgroundImageFix"/>
<feColorMatrix in="SourceAlpha" type="matrix" values="0 0 0 0 0 0 0 0 0 0 0 0 0 0 0 0 0 0 127 0" result="hardAlpha"/>
<feOffset dy="4"/>
<feGaussianBlur stdDeviation="0.5"/>
<feComposite in2="hardAlpha" operator="out"/>
<feColorMatrix type="matrix" values="0 0 0 0 0 0 0 0 0 0 0 0 0 0 0 0 0 0 0.25 0"/>
<feBlend mode="normal" in2="BackgroundImageFix" result="effect1_dropShadow_2_12"/>
<feBlend mode="normal" in="SourceGraphic" in2="effect1_dropShadow_2_12" result="shape"/>
</filter>
</defs>
</svg>
